# xmcd
#
# Track frame offsets:
#	150
#	8265
#	19445
#	33645
#	41380
#	63144
#	82502
#	94865
#	112320
#	131045
#	136978
#
# Disc length: 1980 seconds
#
# Revision: 0
# Processed by: cddbd v1.5.1PL2 Copyright (c) Steve Scherf et al.
# Submitted via: audiograbber 1.83.01
#
DISCID=8407ba0b
DTITLE=The Get Up Johns - Trouble In Mind
DYEAR=2006
DGENRE=Bluegrass
TTITLE0=Cluck Ol' Hen
TTITLE1=Trouble in Mind
TTITLE2=Midnight Special
TTITLE3=Guns to Carry
TTITLE4=Lizard in the Spring
TTITLE5=Stay Away Blues
TTITLE6=Wishful Thinkin'
TTITLE7=You're Not Easy to Forget
TTITLE8=Meet me by the Moonlight
TTITLE9=Sinner, you better get ready
TTITLE10=Deep Blue Sea
EXTD=
EXTT0=
EXTT1=
EXTT2=
EXTT3=
EXTT4=
EXTT5=
EXTT6=
EXTT7=
EXTT8=
EXTT9=
EXTT10=
PLAYORDER=
